#!OML:ASF E:\motion texture\Top Level 1\Subject 1\Session 1\male.ASF
:FULLY-SPECIFIED
:DEGREES
692
root -50.3269 18.0534 0.372388 872.906 -87.0792 -869.103
lowerback -0.522321 -2.79124 -1.70006
upperback -0.335636 -3.71809 1.02803
thorax 0.124766 -1.85936 1.97471
lowerneck -3.86508 -13.7499 -18.0318
upperneck 6.01589 -18.8387 15.9785
head 5.69236 -9.18792 6.21935
rclavicle -2.95506e-014 3.08116e-015
rhumerus -36.3341 -12.8546 -68.7861
rradius 81.9221
rwrist 11.5086
rhand -21.469 -23.3522
rfingers 7.12502
rthumb 4.92152 -413.275
lclavicle -2.95506e-014 3.08116e-015
lhumerus -38.2056 24.5113 72.2501
lradius 25.5006
lwrist -20.6457
lhand -11.2297 25.6406
lfingers 7.12502
lthumb 14.7992 55.0922
rfemur -26.2972 -4.66163 21.6078
rtibia 66.6983
rfoot 3.41069 -18.3027
rtoes 11.8731
lfemur -13.315 -2.79501 -19.2918
ltibia 19.3912
lfoot -6.52581 2.67077
ltoes -5.87159
693
root -50.41 18.0563 0.371769 873.326 -87.0659 -869.451
lowerback -0.331509 -2.91702 -1.90284
upperback -0.400403 -3.88919 1.206
thorax -0.014553 -1.9431 2.28033
lowerneck -4.01515 -13.6793 -17.9613
upperneck 6.05205 -18.7022 15.8227
head 5.68171 -9.11698 6.17136
rclavicle 3.36847e-014 3.62782e-015
rhumerus -36.6083 -14.1476 -69.8829
rradius 77.9814
rwrist 10.501
rhand -17.704 -24.0198
rfingers 7.12502
rthumb 8.55595 -413.826
lclavicle 3.36847e-014 3.62782e-015
lhumerus -38.2056 24.5113 72.2501
lradius 25.5006
lwrist -20.6457
lhand -11.2297 25.6406
lfingers 7.12502
lthumb 14.7992 55.0922
rfemur -26.2972 -4.66163 21.6078
rtibia 66.6983
rfoot 3.41069 -18.3027
rtoes 11.8731
lfemur -13.315 -2.79501 -19.2918
ltibia 19.3912
lfoot -6.52581 2.67077
ltoes -5.87159
694
root -50.503 18.0591 0.379267 881.237 -87.3653 -877.369
lowerback -0.387871 -3.08269 -2.45627
upperback -0.329356 -4.10713 1.21382
thorax 0.140777 -2.05425 2.58758
lowerneck -4.0257 -13.6722 -17.9017
upperneck 6.07348 -18.6831 15.7203
head 5.67007 -9.10857 6.13317
rclavicle -8.29615e-015 1.81391e-015
rhumerus -36.6083 -14.1476 -69.8829
rradius 77.9814
rwrist 10.501
rhand -17.704 -24.0198
rfingers 7.12502
rthumb 8.55595 -413.826
lclavicle -8.29615e-015 1.81391e-015
lhumerus -38.2056 24.5113 72.2501
lradius 25.5006
lwrist -20.6457
lhand -11.2297 25.6406
lfingers 7.12502
lthumb 14.7992 55.0922
rfemur -26.2972 -4.66163 21.6078
rtibia 66.6983
rfoot 3.41069 -18.3027
rtoes 11.8731
lfemur -13.315 -2.79501 -19.2918
ltibia 19.3912
lfoot -6.52581 2.67077
ltoes -5.87159
695
root -50.5834 18.0625 0.379403 877.74 -87.2881 -873.721
lowerback -0.401782 -3.18743 -2.40133
upperback -0.336427 -4.24842 1.42095
thorax 0.161968 -2.12605 2.76641
lowerneck -3.89354 -13.59 -17.9638
upperneck 5.7558 -18.5645 15.8636
head 5.55186 -9.05581 6.21936
rclavicle -4.41719e-014 1.46231e-014
rhumerus -36.6083 -14.1476 -69.8829
rradius 77.9814
rwrist 10.501
rhand -17.704 -24.0198
rfingers 7.12502
rthumb 8.55595 -413.826
lclavicle -4.41719e-014 1.46231e-014
lhumerus -38.2056 24.5113 72.2501
lradius 25.5006
lwrist -20.6457
lhand -11.2297 25.6406
lfingers 7.12502
lthumb 14.7992 55.0922
rfemur -26.2972 -4.66163 21.6078
rtibia 66.6983
rfoot 3.41069 -18.3027
rtoes 11.8731
lfemur -13.315 -2.79501 -19.2918
ltibia 19.3912
lfoot -6.52581 2.67077
ltoes -5.87159
696
root -50.6717 18.0643 0.386412 881.105 -87.4442 -877.103
lowerback -0.252618 -3.30728 -2.64699
upperback -0.320161 -4.41121 1.49716
thorax 0.130407 -2.20737 2.98744
lowerneck -4.00368 -13.5691 -17.9562
upperneck 5.68508 -18.501 15.8234
head 5.53281 -9.02044 6.20914
rclavicle 8.32255e-015 -1.08835e-014
rhumerus -36.6083 -14.1476 -69.8829
rradius 77.9814
rwrist 10.501
rhand -17.704 -24.0198
rfingers 7.12502
rthumb 8.55595 -413.826
lclavicle 8.32255e-015 -1.08835e-014
lhumerus -38.2056 24.5113 72.2501
lradius 25.5006
lwrist -20.6457
lhand -11.2297 25.6406
lfingers 7.12502
lthumb 14.7992 55.0922
rfemur -26.2972 -4.66163 21.6078
rtibia 66.6983
rfoot 3.41069 -18.3027
rtoes 11.8731
lfemur -13.315 -2.79501 -19.2918
ltibia 19.3912
lfoot -6.52581 2.67077
ltoes -5.87159
697
root -50.7578 18.0641 0.389541 886.755 -87.5009 -882.691
lowerback -1.03089 -3.40185 -2.37484
upperback 0.273687 -4.51501 1.04648
thorax 1.12507 -2.27705 2.29922
lowerneck -4.40131 -13.5813 -17.376
upperneck 5.32852 -18.5007 16.1793
head 5.47443 -8.98616 6.21868
rclavicle -7.3364e-015 -1.83876e-015
rhumerus -36.6083 -14.1476 -69.8829
rradius 77.9814
rwrist 10.501
rhand -17.704 -24.0198
rfingers 7.12502
rthumb 8.55595 -413.826
lclavicle -7.3364e-015 -1.83876e-015
lhumerus -38.2056 24.5113 72.2501
lradius 25.5006
lwrist -20.6457
lhand -11.2297 25.6406
lfingers 7.12502
lthumb 14.7992 55.0922
rfemur -26.2972 -4.66163 21.6078
rtibia 66.6983
rfoot 3.41069 -18.3027
rtoes 11.8731
lfemur -13.315 -2.79501 -19.2918
ltibia 19.3912
lfoot -6.52581 2.67077
ltoes -5.87159
698
root -50.8469 18.0654 0.397002 883.78 -87.5775 -879.638
lowerback -1.08782 -3.51633 -2.31579
upperback 0.300472 -4.67022 1.22815
thorax 1.20404 -2.35687 2.44264
lowerneck -4.5277 -13.5709 -17.3726
upperneck 5.34778 -18.4465 16.0374
head 5.47667 -8.95652 6.17339
rclavicle 2.62419e-014 -1.03741e-014
rhumerus -36.6083 -14.1476 -69.8829
rradius 77.9814
rwrist 10.501
rhand -17.704 -24.0198
rfingers 7.12502
rthumb 8.55595 -413.826
lclavicle 2.62419e-014 -1.03741e-014
lhumerus -38.2056 24.5113 72.2501
lradius 25.5006
lwrist -20.6457
lhand -11.2297 25.6406
lfingers 7.12502
lthumb 14.7992 55.0922
rfemur -26.2972 -4.66163 21.6078
rtibia 66.6983
rfoot 3.41069 -18.3027
rtoes 11.8731
lfemur -13.315 -2.79501 -19.2918
ltibia 19.3912
lfoot -6.52581 2.67077
ltoes -5.87159
